<?xml version="1.0" standalone="no"?><!DOCTYPE svg PUBLIC "-//W3C//DTD SVG 1.1//EN" "http://www.w3.org/Graphics/SVG/1.1/DTD/svg11.dtd"><svg t="1700387938889" class="icon" viewBox="0 0 1024 1024" version="1.1" xmlns="http://www.w3.org/2000/svg" p-id="9495" xmlns:xlink="http://www.w3.org/1999/xlink" width="200" height="200"><path d="M905.2 144.9h-785c-31.3 0-56.7 25.6-56.7 57.3v7.7c0 31.6 25.4 36.4 56.7 36.4h785c31.3 0 56.7-4.7 56.7-36.4v-7.7c0-31.7-25.4-57.3-56.7-57.3zM800.7 459.8H120.2c-31.3 0-56.7 25.6-56.7 57.3v-13.2c0 31.6 25.4 57.3 56.7 57.3h680.5c31.3 0 56.7-25.6 56.7-57.3v13.2c0-31.6-25.4-57.3-56.7-57.3z m-104.4 315h-576c-31.3 0-56.7 25.6-56.7 57.3v7.7c0 31.6 25.4 36.4 56.7 36.4h576c31.3 0 56.7-4.7 56.7-36.4V832c0-31.6-25.4-57.2-56.7-57.2z" p-id="9496" fill="#f27299"></path></svg>