<?xml version="1.0" standalone="no"?><!DOCTYPE svg PUBLIC "-//W3C//DTD SVG 1.1//EN" "http://www.w3.org/Graphics/SVG/1.1/DTD/svg11.dtd"><svg t="1700232167933" class="icon" viewBox="0 0 1024 1024" version="1.1" xmlns="http://www.w3.org/2000/svg" p-id="5068" xmlns:xlink="http://www.w3.org/1999/xlink" width="200" height="200"><path d="M636.052767 856.895908H490.577116l-19.428135 89.173835H927.997795c21.422884 0 38.859918-17.437033 38.859918-38.858701V246.597308c0-21.422884-17.437033-38.859918-38.859918-38.859917H519.972918m-69.249446 648.65983H96.500892c-42.845768 0-77.719835-34.874067-77.719835-77.721052V118.561123c0-43.344456 34.874067-77.719835 77.719835-77.719835h388.597959l23.912673 128.036185h418.486368c42.849417 0 77.722268 34.87285 77.722267 77.719835v660.613734c0 42.846985-34.874067 77.718619-77.722267 77.718619h-504.671727l27.897307-128.53244zM267.384062 557.475433v-40.851019H190.660386v-60.284018h71.245412v-40.351115H190.660386v-51.31859h76.723676V324.317144H145.823516v233.157072h121.560546z m187.320396 0v-116.576104c0-20.924197-4.978361-37.36872-14.443692-48.82272-9.468981-11.460081-23.917538-16.943211-42.845769-16.943212-10.961394 0-20.924197 1.99475-29.395802 6.480505a48.019955 48.019955 0 0 0-19.926822 19.926822h-2.489788l-5.981817-22.920163H305.745292v178.854872h43.839495V473.278742c0-20.924197 2.993341-35.866576 8.471605-45.335557 5.477048-8.965428 14.447341-13.451182 26.901149-13.451182 8.970293 0 15.445932 2.988476 19.93047 9.464115 3.987067 6.481721 6.476856 15.945836 6.476856 28.897115v104.6222h43.339591z m0 0" p-id="5069" data-spm-anchor-id="a313x.search_index.0.i0.241d3a81xJo9aP" class="" fill="#f27299"></path><path d="M588.75895 461.678785h49.901588v11.089106h67.92245v-69.307829h51.288183v69.307829h65.149262l16.634268-20.792835 49.901588 34.653915-13.861079 18.019646v120.596011h-49.901589v-15.247674h-67.92245v119.210634h-51.288183v-119.210634H638.661754v15.247674h-49.901588V461.678785z m49.902804 44.357643v70.694423h67.922451v-70.694423H638.661754z m119.209417 0v70.694423h67.92245v-70.694423h-67.92245z" p-id="5070" data-spm-anchor-id="a313x.search_index.0.i1.241d3a81xJo9aP" class="" fill="#f27299"></path></svg>