<?xml version="1.0" standalone="no"?><!DOCTYPE svg PUBLIC "-//W3C//DTD SVG 1.1//EN" "http://www.w3.org/Graphics/SVG/1.1/DTD/svg11.dtd"><svg t="1700754039357" class="icon" viewBox="0 0 1024 1024" version="1.1" xmlns="http://www.w3.org/2000/svg" p-id="7950" xmlns:xlink="http://www.w3.org/1999/xlink" width="200" height="200"><path d="M512 512m-512 0a512 512 0 1 0 1024 0 512 512 0 1 0-1024 0Z" fill="#33C7FC" p-id="7951"></path><path d="M324.408781 655.018925C505.290126 655.018925 651.918244 508.387706 651.918244 327.509463c0-152.138029-103.733293-280.047334-244.329811-316.853972C205.813923 52.463528 47.497011 213.017581 8.987325 415.981977 47.587706 553.880127 174.183098 655.018925 324.408781 655.018925z" fill="#FFFFFF" fill-opacity=".2" p-id="7952"></path><path d="M512 1024c282.766631 0 512-229.233369 512-512 0-31.765705-2.891385-62.853911-8.433853-93.018889C928.057169 336.0999 809.874701 285.26268 679.824375 285.26268c-269.711213 0-488.357305 218.645317-488.357305 488.357305 0 54.959576 9.084221 107.802937 25.822474 157.10377C300.626556 989.489417 402.283167 1024 512 1024z" fill="#FFFFFF" fill-opacity=".15" p-id="7953"></path><path d="M732.535958 756.566238c36.389596 0 65.889478-29.499882 65.889477-65.889478 0 36.389596 29.502983 65.889478 65.889478 65.889478-17.053747 0-65.889478 29.502983-65.889478 65.889477 0-36.386495-29.499882-65.889478-65.889477-65.889477zM159.685087 247.279334c25.686819 0 46.51022-20.8234 46.51022-46.51022 0 25.686819 20.8234 46.51022 46.510219 46.51022-12.03607 0-46.51022 20.8234-46.510219 46.510219 0-25.686819-20.8234-46.51022-46.51022-46.510219z" fill="#FFFFFF" fill-opacity=".5" p-id="7954"></path><path d="M206.195307 333.32324c8.562531 0 15.503407-6.940875 15.503406-15.503407 0 8.562531 6.940875 15.503407 15.503407 15.503407-4.012282 0-15.503407 6.940875-15.503407 15.503406 0-8.562531-6.940875-15.503407-15.503406-15.503406z" fill="#FFFFFF" fill-opacity=".3" p-id="7955"></path><path d="M685.453662 247.279334c5.526964 0 11.101989 0.240303 16.652984 0.768969a34.002071 34.002071 0 0 1 30.758759 34.026876v383.403119c0 18.407195-14.466229 33.402089-32.681181 34.074937-32.897453 1.225544-60.796609 5.647116-83.601344 13.312776-29.917699 10.092718-59.042398 28.355731-87.205887 54.765008V338.882762c20.810223-36.02139 49.934922-61.829911 87.205887-77.497654A178.026392 178.026392 0 0 1 685.453662 247.279334z m81.390559 426.273138v-349.880878c8.961744 0 17.6359 3.580512 23.96129 10.020627 6.317638 6.440115 9.945435 15.091016 9.945435 24.126401v347.117396c0 27.130186-16.867706 71.009478-67.83748 66.587906-35.901238-3.051846-38.232176-4.349481-68.534359-3.844845-29.653366 0.528666-71.17769-0.504636-108.328503 8.266417 20.810223-17.494044 51.232557-29.845608 71.369932-34.122998 20.113344-4.373511 45.224987-6.247873 74.734171-7.353266 37.487237-1.369726 64.689514-29.725456 64.689514-60.91676zM339.369569 247.279334c23.453553 0 46.378441 4.757995 68.870782 14.105774 37.246934 15.619682 66.395664 41.476263 87.205887 77.497654v428.796317c-28.163488-26.433308-57.312218-44.720351-87.229917-54.740978-22.780706-7.593569-50.6318-12.087231-83.577314-13.264714a33.930755 33.930755 0 0 1-32.60909-34.122998V282.075179c0-17.638226 13.288745-32.320727 30.758758-33.954785 5.478904-0.576727 11.053929-0.84106 16.580894-0.84106zM258.00304 673.552472c0 28.139458 20.666041 59.282701 65.362362 60.91676 29.605305 1.105393 48.06056 4.349481 74.109384 7.353266 26.024793 2.907664 51.088375 16.701045 71.898598 34.122998-37.150813-8.771052-75.575231-8.266416-108.92926-8.266417-26.217036 0-30.806819 3.844845-68.534359 3.844845-44.504079 0-67.885541-40.515052-67.885541-66.563876v-347.237547c0-18.86377 15.187137-34.122998 33.906725-34.122998v349.928939h0.072091v0.02403z" fill="#FFFFFF" p-id="7956"></path></svg>