<?xml version="1.0" standalone="no"?><!DOCTYPE svg PUBLIC "-//W3C//DTD SVG 1.1//EN" "http://www.w3.org/Graphics/SVG/1.1/DTD/svg11.dtd"><svg t="1700754098861" class="icon" viewBox="0 0 1024 1024" version="1.1" xmlns="http://www.w3.org/2000/svg" p-id="1333" xmlns:xlink="http://www.w3.org/1999/xlink" width="200" height="200"><path d="M512 512m-512 0a512 512 0 1 0 1024 0 512 512 0 1 0-1024 0Z" fill="#3494FD" p-id="1334"></path><path d="M324.408781 655.018925C505.290126 655.018925 651.918244 508.387706 651.918244 327.509463c0-152.138029-103.733293-280.047334-244.329811-316.853972C205.813923 52.463528 47.497011 213.017581 8.987325 415.981977 47.587706 553.880127 174.183098 655.018925 324.408781 655.018925z" fill="#FFFFFF" fill-opacity=".2" p-id="1335"></path><path d="M512 1024c282.766631 0 512-229.233369 512-512 0-31.765705-2.891385-62.853911-8.433853-93.018889C928.057169 336.0999 809.874701 285.26268 679.824375 285.26268c-269.711213 0-488.357305 218.645317-488.357305 488.357305 0 54.959576 9.084221 107.802937 25.822474 157.10377C300.626556 989.489417 402.283167 1024 512 1024z" fill="#FFFFFF" fill-opacity=".15" p-id="1336"></path><path d="M732.535958 756.566238c36.389596 0 65.889478-29.499882 65.889477-65.889478 0 36.389596 29.502983 65.889478 65.889478 65.889478-17.053747 0-65.889478 29.502983-65.889478 65.889477 0-36.386495-29.499882-65.889478-65.889477-65.889477zM159.685087 247.279334c25.686819 0 46.51022-20.8234 46.51022-46.51022 0 25.686819 20.8234 46.51022 46.510219 46.51022-12.03607 0-46.51022 20.8234-46.510219 46.510219 0-25.686819-20.8234-46.51022-46.51022-46.510219z" fill="#FFFFFF" fill-opacity=".5" p-id="1337"></path><path d="M206.195307 333.32324c8.562531 0 15.503407-6.940875 15.503406-15.503407 0 8.562531 6.940875 15.503407 15.503407 15.503407-4.012282 0-15.503407 6.940875-15.503407 15.503406 0-8.562531-6.940875-15.503407-15.503406-15.503406z" fill="#FFFFFF" fill-opacity=".3" p-id="1338"></path><path d="M628.318958 255.837214c26.23564 0 47.472206 21.20711 47.472206 47.37531v421.512042l27.104606 0.899198 1.241823-383.127934H724.62922c26.203858 0 47.440424 21.20711 47.440424 47.37531v327.938907c0 26.075179-21.112539 47.252058-47.192369 47.407092l-424.482495 2.200708a47.504763 47.504763 0 0 1-33.609835-13.708887A47.37531 47.37531 0 0 1 252.705526 720.290592V303.181517C252.705526 277.013317 273.942092 255.806207 300.14595 255.806207h328.173008v0.031007z m-71.191642 361.51696H341.532294a21.019519 21.019519 0 0 0-19.421893 12.956972 20.966807 20.966807 0 0 0 4.557227 22.877602 21.034247 21.034247 0 0 0 14.864666 6.146325h215.595022a21.031146 21.031146 0 0 0 14.865441-6.146325 20.996263 20.996263 0 0 0 4.557226-6.810647 20.962156 20.962156 0 0 0 0-16.066955 20.983861 20.983861 0 0 0-4.557226-6.809871 21.031146 21.031146 0 0 0-14.865441-6.147101z m0-82.596724H341.532294a21.033472 21.033472 0 0 0-14.862341 6.147876 20.976109 20.976109 0 0 0-6.156403 14.842186 20.975334 20.975334 0 0 0 6.156403 14.842187 21.031146 21.031146 0 0 0 14.862341 6.148651h215.595022a21.031146 21.031146 0 0 0 14.86234-6.148651 20.971458 20.971458 0 0 0 0-29.684373 21.033472 21.033472 0 0 0-14.86234-6.147876zM428.993986 365.501335h-88.175624a20.350547 20.350547 0 0 0-14.359255 5.95951 20.290858 20.290858 0 0 0-5.945557 14.349178v88.053922c0 11.192684 9.096624 20.276905 20.335819 20.276906h88.144617c5.393635 0 10.565572-2.13947 14.37941-5.947882a20.293959 20.293959 0 0 0 5.956409-14.36003V385.810023a20.292409 20.292409 0 0 0-5.956409-14.360031 20.346671 20.346671 0 0 0-14.37941-5.948657z m128.13333 86.658617h-59.673387a21.043549 21.043549 0 0 0-14.863116 6.147875 20.964481 20.964481 0 0 0 0 29.685148 21.028821 21.028821 0 0 0 14.863116 6.147876h59.673387a21.035797 21.035797 0 0 0 14.86234-6.147876 20.978435 20.978435 0 0 0 6.156403-14.842186 20.964481 20.964481 0 0 0-6.156403-14.842962 21.036572 21.036572 0 0 0-14.86234-6.147875z m0-86.658617h-59.673387c-2.761157 0-5.494407 0.542619-8.044718 1.596851a21.014868 21.014868 0 0 0-11.37795 11.360121 20.966807 20.966807 0 0 0 4.557227 22.877602 21.028045 21.028045 0 0 0 14.865441 6.146326h59.673387a21.031146 21.031146 0 0 0 14.865441-6.146326 20.996263 20.996263 0 0 0 4.557226-6.810646 20.962156 20.962156 0 0 0 0-16.066956 20.983861 20.983861 0 0 0-4.557226-6.809871 21.031146 21.031146 0 0 0-14.865441-6.147101z" fill="#FFFFFF" p-id="1339"></path></svg>