<?xml version="1.0" standalone="no"?>
<!DOCTYPE svg PUBLIC "-//W3C//DTD SVG 1.1//EN" "http://www.w3.org/Graphics/SVG/1.1/DTD/svg11.dtd"><svg t="1698889066323"
	class="icon" viewBox="0 0 1024 1024" version="1.1" xmlns="http://www.w3.org/2000/svg" p-id="1245"
	xmlns:xlink="http://www.w3.org/1999/xlink" width="200" height="200">
	<path
		d="M637.0304 742.4a81.92 81.92 0 0 1-81.92-81.92v-130.5088a81.92 81.92 0 0 1 81.92-81.92h307.2V346.2656a92.16 92.16 0 0 0-92.16-92.16H91.8528v588.2368a92.16 92.16 0 0 0 92.16 92.16h668.16a92.16 92.16 0 0 0 92.16-92.16V742.4zM143.0528 87.3472h520.6528a51.2 51.2 0 0 1 51.2 51.2v61.952H91.8528v-61.952a51.2 51.2 0 0 1 51.2-51.2z"
		fill="#fb7299" p-id="1246"></path>
	<path
		d="M637.0304 509.0816a20.48 20.48 0 0 0-20.48 20.48v130.2528a20.48 20.48 0 0 0 20.48 20.48h307.2V509.0816z m60.3136 123.4432a37.8368 37.8368 0 1 1 37.8368-37.8368 37.8368 37.8368 0 0 1-37.8368 37.8368z"
		fill="#fb7299" p-id="1247"></path>
</svg>