<?xml version="1.0" standalone="no"?><!DOCTYPE svg PUBLIC "-//W3C//DTD SVG 1.1//EN" "http://www.w3.org/Graphics/SVG/1.1/DTD/svg11.dtd"><svg t="1698889106831" class="icon" viewBox="0 0 1024 1024" version="1.1" xmlns="http://www.w3.org/2000/svg" p-id="1746" xmlns:xlink="http://www.w3.org/1999/xlink" width="200" height="200"><path d="M956.928 221.7984v-31.6416a81.92 81.92 0 0 0-81.92-81.92H156.4672a81.92 81.92 0 0 0-81.92 81.92v31.6416zM74.5472 283.2384V829.44a81.92 81.92 0 0 0 81.92 81.92H875.008a81.92 81.92 0 0 0 81.92-81.92V283.2384z m455.68 348.928h-32.3584A257.8944 257.8944 0 0 1 239.5648 375.296a30.72 30.72 0 0 1 61.44 0 196.4032 196.4032 0 0 0 196.864 195.4304h32.1536A196.352 196.352 0 0 0 727.04 375.296a30.72 30.72 0 1 1 61.44 0 257.8432 257.8432 0 0 1-258.4576 256.8704z" fill="#fb7299" p-id="1747"></path></svg>