<?xml version="1.0" standalone="no"?><!DOCTYPE svg PUBLIC "-//W3C//DTD SVG 1.1//EN" "http://www.w3.org/Graphics/SVG/1.1/DTD/svg11.dtd"><svg t="1698889077504" class="icon" viewBox="0 0 1024 1024" version="1.1" xmlns="http://www.w3.org/2000/svg" p-id="1496" xmlns:xlink="http://www.w3.org/1999/xlink" width="200" height="200"><path d="M875.1616 102.4H149.6576a92.16 92.16 0 0 0-92.16 92.16v529.1008a92.16 92.16 0 0 0 92.16 92.16h248.576a16.1792 16.1792 0 0 1 16.1792 16.128v98.2016a16.1792 16.1792 0 0 0 25.6 13.2096L604.16 828.416a69.7344 69.7344 0 0 1 39.9872-12.5952h230.9632a92.16 92.16 0 0 0 92.16-92.16V194.56a92.16 92.16 0 0 0-92.1088-92.16z m-116.992 545.1264H273.152a30.72 30.72 0 1 1 0-61.44h485.0176a30.72 30.72 0 0 1 0 61.44z m0-158.464H273.152a30.72 30.72 0 0 1 0-61.44h485.0176a30.72 30.72 0 0 1 0 61.44z m0-158.464H273.152a30.72 30.72 0 0 1 0-61.44h485.0176a30.72 30.72 0 1 1 0 61.44z" fill="#fb7299" p-id="1497"></path></svg>