<?xml version="1.0" standalone="no"?><!DOCTYPE svg PUBLIC "-//W3C//DTD SVG 1.1//EN" "http://www.w3.org/Graphics/SVG/1.1/DTD/svg11.dtd"><svg t="1698889115408" class="icon" viewBox="0 0 1024 1024" version="1.1" xmlns="http://www.w3.org/2000/svg" p-id="1996" xmlns:xlink="http://www.w3.org/1999/xlink" width="200" height="200"><path d="M957.44 414.4128l-91.8528-91.1872a75.264 75.264 0 0 0-52.9408-21.76h-94.0544V225.28a116.8896 116.8896 0 0 0-116.8896-116.8896H167.3216A116.8896 116.8896 0 0 0 50.432 225.28v475.8528a116.8384 116.8384 0 0 0 107.1104 116.3776 164.1472 164.1472 0 0 1 328.2432 0.512h52.7872a164.1472 164.1472 0 1 1 328.2432 0h5.12a106.8032 106.8032 0 0 0 107.1616-106.496V466.9952A74.24 74.24 0 0 0 957.44 414.4128zM435.2 451.84a41.984 41.984 0 0 1-41.9328 41.9328h-163.84a30.72 30.72 0 1 1 0-61.44H373.76V297.2672a30.72 30.72 0 0 1 61.44 0z m466.6368 74.3936h-116.5312a41.9328 41.9328 0 0 1-41.8816-41.8816V376.1664a30.72 30.72 0 0 1 61.44 0v88.6272h96.9216a30.72 30.72 0 0 1 0 61.44z" fill="#fb7299" p-id="1997"></path><path d="M322.048 817.8688m-104.448 0a104.448 104.448 0 1 0 208.896 0 104.448 104.448 0 1 0-208.896 0Z" fill="#fb7299" p-id="1998"></path><path d="M702.72 817.8688m-104.448 0a104.448 104.448 0 1 0 208.896 0 104.448 104.448 0 1 0-208.896 0Z" fill="#fb7299" p-id="1999"></path></svg>