<?xml version="1.0" standalone="no"?><!DOCTYPE svg PUBLIC "-//W3C//DTD SVG 1.1//EN" "http://www.w3.org/Graphics/SVG/1.1/DTD/svg11.dtd"><svg t="1699366010826" class="icon" viewBox="0 0 1024 1024" version="1.1" xmlns="http://www.w3.org/2000/svg" p-id="8111" xmlns:xlink="http://www.w3.org/1999/xlink" width="200" height="200"><path d="M622.6944 247.3472H410.9312c-30.8224 0-55.808-24.9856-55.808-55.808v-48.0768c0-30.8224 24.9856-55.808 55.808-55.808h211.7632c30.8224 0 55.808 24.9856 55.808 55.808v48.0768c-0.0512 30.8736-25.0368 55.808-55.808 55.808z" fill="#999999" p-id="8112"></path><path d="M762.112 143.7696h-35.9936c1.5872 7.9872 2.4576 16.1792 2.4576 24.6272 0 68.4544-55.5008 123.9552-123.9552 123.9552H428.9024c-68.4544 0-123.9552-55.5008-123.9552-123.9552 0-8.448 0.8704-16.6912 2.4576-24.6272h-35.9936c-62.8224 0-113.7664 50.944-113.7664 113.7664v547.1232c0 62.8224 50.944 113.7664 113.7664 113.7664h490.7008c62.8224 0 113.7664-50.944 113.7664-113.7664V257.536c0.0512-62.8224-50.8928-113.7664-113.7664-113.7664zM518.0416 773.12H317.5936c-21.8624 0-39.5776-17.7152-39.5776-39.5776 0-21.8624 17.7152-39.5776 39.5776-39.5776h200.448c21.8624 0 39.5776 17.7152 39.5776 39.5776 0 21.8624-17.7152 39.5776-39.5776 39.5776z m203.5712-142.7968H317.5936c-21.8624 0-39.5776-17.7152-39.5776-39.5776 0-21.8624 17.7152-39.5776 39.5776-39.5776h404.0192c21.8624 0 39.5776 17.7152 39.5776 39.5776 0 21.8624-17.7152 39.5776-39.5776 39.5776z m0-156.3648H317.5936c-21.8624 0-39.5776-17.7152-39.5776-39.5776s17.7152-39.5776 39.5776-39.5776h404.0192c21.8624 0 39.5776 17.7152 39.5776 39.5776s-17.7152 39.5776-39.5776 39.5776z" fill="#999999" p-id="8113"></path><path d="M875.8784 491.2128V257.536c0-62.8224-50.944-113.7664-113.7664-113.7664h-35.9936c1.5872 7.9872 2.4576 16.1792 2.4576 24.6272 0 68.4544-55.5008 123.9552-123.9552 123.9552H428.9024c-68.4544 0-123.9552-55.5008-123.9552-123.9552 0-8.448 0.8704-16.6912 2.4576-24.6272h-35.9936c-62.8224 0-113.7664 50.944-113.7664 113.7664v547.1232c0 53.504 36.9664 98.2528 86.7328 110.3872 8.3456 0.3072 16.7424 0.512 25.1392 0.512 278.8352 0.0512 516.2496-176.7424 606.3616-424.3456zM317.5936 394.8544h404.0192c21.8624 0 39.5776 17.7152 39.5776 39.5776 0 21.8624-17.7152 39.5776-39.5776 39.5776H317.5936a39.57248 39.57248 0 1 1 0-79.1552zM518.0416 773.12H317.5936c-21.8624 0-39.5776-17.7152-39.5776-39.5776s17.7152-39.5776 39.5776-39.5776h200.448c21.8624 0 39.5776 17.7152 39.5776 39.5776s-17.7152 39.5776-39.5776 39.5776z m-200.448-142.7968c-21.8624 0-39.5776-17.7152-39.5776-39.5776 0-21.8624 17.7152-39.5776 39.5776-39.5776h404.0192c21.8624 0 39.5776 17.7152 39.5776 39.5776 0 21.8624-17.7152 39.5776-39.5776 39.5776H317.5936z" fill="#999999" p-id="8114"></path><path d="M356.8128 630.3232h-39.2192c-21.8624 0-39.5776-17.7152-39.5776-39.5776 0-21.8624 17.7152-39.5776 39.5776-39.5776H488.448c29.952-23.296 57.8048-49.1008 83.2512-77.2096H317.5936c-21.8624 0-39.5776-17.7152-39.5776-39.5776 0-21.8624 17.7152-39.5776 39.5776-39.5776h315.2384c31.8464-48.5376 57.344-101.6832 75.264-158.1568-22.1696 33.536-60.2112 55.7056-103.424 55.7056H428.9024c-68.4544 0-123.9552-55.5008-123.9552-123.9552 0-8.448 0.8704-16.6912 2.4576-24.6272h-35.9936c-62.8224 0-113.7664 50.944-113.7664 113.7664v425.7792c70.3488-6.9632 137.3184-25.2416 199.168-52.992zM728.0128 156.2112c0.7168-4.1472 1.4336-8.2944 2.0992-12.4416h-3.9424c0.8192 4.096 1.4336 8.2432 1.8432 12.4416z" fill="#999999" p-id="8115"></path><path d="M375.7568 280.32c-41.8304-19.9168-70.8096-62.464-70.8096-111.872 0-8.448 0.8704-16.6912 2.4576-24.6272h-35.9936c-62.8224 0-113.7664 50.944-113.7664 113.7664V417.28a645.46304 645.46304 0 0 0 218.112-136.96zM514.7648 87.7056H434.944c-44.0832 0-79.8208 35.7376-79.8208 79.8208 0 35.7888 23.6032 66.0992 56.064 76.2368 41.6768-46.4384 76.6464-98.9696 103.5776-156.0576z" fill="#999999" p-id="8116"></path></svg>