<?xml version="1.0" standalone="no"?><!DOCTYPE svg PUBLIC "-//W3C//DTD SVG 1.1//EN" "http://www.w3.org/Graphics/SVG/1.1/DTD/svg11.dtd"><svg t="1698991756723" class="icon" viewBox="0 0 1024 1024" version="1.1" xmlns="http://www.w3.org/2000/svg" p-id="7790" xmlns:xlink="http://www.w3.org/1999/xlink" width="200" height="200"><path d="M908.6976 576.6656V209.1008a41.3184 41.3184 0 0 0-36.5056-40.1408c-67.9424-9.216-217.5488-37.888-336.384-120.32A43.9808 43.9808 0 0 0 486.4 48.2816 731.4432 731.4432 0 0 1 164.1472 167.424a41.4208 41.4208 0 0 0-37.6832 40.3456v366.6432S93.44 824.32 522.24 969.2672c398.1312-140.544 386.4576-348.0064 386.4576-392.6016z m-193.6896-180.9408l-189.0816 237.3632A45.2608 45.2608 0 0 1 492.544 650.24h-1.8432a44.9024 44.9024 0 0 1-32.768-14.1312L327.3216 497.3056a25.6 25.6 0 0 1 37.2736-35.1232l125.696 133.4272 184.6784-231.8336a25.6 25.6 0 0 1 40.0384 31.9488z" fill="#fb7299" p-id="7791"></path></svg>