<?xml version="1.0" standalone="no"?><!DOCTYPE svg PUBLIC "-//W3C//DTD SVG 1.1//EN" "http://www.w3.org/Graphics/SVG/1.1/DTD/svg11.dtd"><svg t="1699362226405" class="icon" viewBox="0 0 1053 1024" version="1.1" xmlns="http://www.w3.org/2000/svg" p-id="14543" xmlns:xlink="http://www.w3.org/1999/xlink" width="205.6640625" height="200"><path d="M301.407086 618.408229a20.8896 20.8896 0 0 1 27.004343 31.890285c-14.189714 12.024686-21.006629 24.283429-21.006629 35.898515 0 43.008 90.199771 85.664914 204.5952 85.664914s204.565943-42.627657 204.565943-85.664914c0-9.098971-4.154514-18.519771-12.814629-28.028343a20.8896 20.8896 0 0 1 30.9248-28.145372c15.272229 16.7936 23.698286 35.927771 23.698286 56.173715 0 74.693486-111.674514 127.473371-246.345143 127.473371-134.699886 0-246.432914-52.809143-246.432914-127.473371 0-25.1904 12.931657-48.420571 35.810743-67.7888zM256.555886 559.104a20.8896 20.8896 0 0 1 16.822857 38.268343c-63.341714 27.8528-98.772114 66.179657-98.772114 103.862857 0 81.130057 149.591771 154.302171 337.364114 154.302171 187.830857 0 337.393371-73.142857 337.393371-154.302171 0-34.347886-30.456686-69.339429-85.869714-95.934171a20.8896 20.8896 0 0 1 18.110171-37.6832c68.373943 32.797257 109.568 80.164571 109.568 133.617371 0 112.347429-171.2128 196.110629-379.172571 196.110629-207.959771 0-379.172571-83.733943-379.172571-196.110629 0-57.636571 46.840686-108.3392 123.728457-142.1312z m-48.888686-56.583314a20.8896 20.8896 0 1 1 14.774857 39.1168c-114.190629 43.125029-180.6336 108.163657-180.6336 174.665143 0 119.105829 209.042286 222.910171 470.162286 222.910171 261.207771-0.029257 470.2208-103.804343 470.2208-222.939429 0-63.107657-59.772343-125.015771-164.2496-168.170057a20.8896 20.8896 0 0 1 15.9744-38.619428C952.32 558.343314 1024 632.6272 1024 716.214857c0 150.176914-230.692571 264.718629-512 264.747886C230.692571 980.992 0 866.450286 0 716.214857c0-87.800686 79.023543-165.185829 207.6672-213.752686z m92.598857-64.950857c0-48.7424 16.559543-94.032457 49.5616-146.6368a928.621714 928.621714 0 0 1 34.669714-50.731886c5.851429-8.133486 30.9248-42.247314 37.419886-51.258514 41.398857-57.285486 66.589257-99.093943 85.343086-146.461258 7.343543-18.519771 33.9968-17.261714 39.497143 1.901715 15.652571 54.213486 42.276571 99.298743 92.9792 166.473143 4.447086 5.909943 25.131886 33.031314 30.690743 40.404114 11.702857 15.594057 20.772571 28.145371 29.023085 40.3456 35.869257 53.0432 53.716114 97.4848 53.716115 145.934628 0 130.837943-101.141943 237.275429-226.450286 237.333943-125.3376 0-226.450286-106.496-226.450286-237.333943zM524.522057 105.325714c-17.349486 33.528686-39.204571 67.203657-68.725028 108.046629-6.612114 9.157486-31.656229 43.300571-37.419886 51.258514a890.119314 890.119314 0 0 0-33.148343 48.479086c-29.169371 46.518857-43.154286 84.728686-43.154286 124.372114 0 108.251429 82.885486 195.525486 184.612572 195.525486 101.756343-0.029257 184.671086-87.303314 184.671085-195.525486 0-38.619429-14.921143-75.776-46.518857-122.528914a932.717714 932.717714 0 0 0-27.823543-38.619429l-30.632228-40.316343c-38.326857-50.819657-63.985371-90.258286-81.861486-130.691657z m-1.989486 497.517715a20.8896 20.8896 0 1 1 0-41.808458c64.073143 0 116.297143-55.149714 116.882286-124.167314 0-30.427429-12.873143-58.514286-42.364343-98.684343a20.8896 20.8896 0 0 1 33.674972-24.722285c34.318629 46.6944 50.497829 82.007771 50.497828 123.582171-0.760686 91.574857-71.0656 165.800229-158.690743 165.800229z" fill="#f27299" p-id="14544"></path></svg>