<?xml version="1.0" standalone="no"?><!DOCTYPE svg PUBLIC "-//W3C//DTD SVG 1.1//EN" "http://www.w3.org/Graphics/SVG/1.1/DTD/svg11.dtd"><svg t="1699361342510" class="icon" viewBox="0 0 1024 1024" version="1.1" xmlns="http://www.w3.org/2000/svg" p-id="4528" xmlns:xlink="http://www.w3.org/1999/xlink" width="200" height="200"><path d="M512 513.6384m-458.9056 0a458.9056 458.9056 0 1 0 917.8112 0 458.9056 458.9056 0 1 0-917.8112 0Z" fill="#FDB383" p-id="4529"></path><path d="M645.4272 265.0624A459.1616 459.1616 0 0 0 205.6192 855.04 459.008 459.008 0 0 0 951.808 382.3616a456.96 456.96 0 0 0-306.3808-117.2992z" fill="#FD9752" p-id="4530"></path><path d="M434.66752 543.62624l108.53888-108.544 108.53888 108.544-108.544 108.53888z" fill="#EF7834" p-id="4531"></path><path d="M543.232 236.6976a307.2 307.2 0 1 0 307.2 307.2 306.944 306.944 0 0 0-307.2-307.2z m155.1872 322.56l-139.6224 139.6224a22.016 22.016 0 0 1-31.1296 0l-139.6224-139.6736a22.016 22.016 0 0 1 0-31.1296l139.6224-139.6224a22.1184 22.1184 0 0 1 31.1296 0l139.6224 139.6224a22.1184 22.1184 0 0 1 0 31.1296z" fill="#EF7834" p-id="4532"></path><path d="M415.3856 513.62304l101.55008-101.55008 101.55008 101.55008-101.55008 101.5552z" fill="#FFFFFF" p-id="4533"></path><path d="M517.12 226.4576a287.1808 287.1808 0 1 0 287.1808 287.1808A287.1808 287.1808 0 0 0 517.12 226.4576z m145.2032 301.7216l-130.8672 130.6624a20.48 20.48 0 0 1-29.0816 0L371.712 528.1792a20.48 20.48 0 0 1 0-29.0816L502.3744 368.64a20.48 20.48 0 0 1 29.0816 0l130.6624 130.6624a20.48 20.48 0 0 1 0 28.8768z" fill="#FFFFFF" p-id="4534"></path><path d="M241.152 593.92a287.1808 287.1808 0 0 0 266.5472 206.7968 169.3696 169.3696 0 0 0 37.5296-155.5968l-13.7728 13.7728a20.48 20.48 0 0 1-29.0816 0L371.712 528.1792a21.0432 21.0432 0 0 1-5.12-8.6528A168.96 168.96 0 0 0 241.152 593.92zM426.7008 524.9536L517.12 615.168l11.3664-11.3664a169.2672 169.2672 0 0 0-101.7856-78.848z" fill="#FFE2D2" p-id="4535"></path></svg>