<?xml version="1.0" standalone="no"?><!DOCTYPE svg PUBLIC "-//W3C//DTD SVG 1.1//EN" "http://www.w3.org/Graphics/SVG/1.1/DTD/svg11.dtd"><svg t="1699365926698" class="icon" viewBox="0 0 1024 1024" version="1.1" xmlns="http://www.w3.org/2000/svg" p-id="7315" xmlns:xlink="http://www.w3.org/1999/xlink" width="200" height="200"><path d="M661.8112 256.6656H360.8576c-12.6464 0-22.9376-10.2912-22.9376-22.9376V134.0416c0-12.6464 10.2912-22.9376 22.9376-22.9376h300.9536c12.6464 0 22.9376 10.2912 22.9376 22.9376v99.6864c0 12.6976-10.2912 22.9376-22.9376 22.9376z" fill="#999999" p-id="7316"></path><path d="M767.488 186.0608h-25.344v77.7216c0 25.6512-20.7872 46.4384-46.4384 46.4384H326.9632c-25.6512 0-46.4384-20.7872-46.4384-46.4384V186.0608h-25.344c-56.576 0-102.4 45.824-102.4 102.4v527.9232c0 56.576 45.824 102.4 102.4 102.4H767.488c56.576 0 102.4-45.824 102.4-102.4V288.4608c0-56.576-45.824-102.4-102.4-102.4z m-79.3088 516.608H334.4896c-22.784 0-41.216-18.432-41.216-41.216 0-22.784 18.432-41.216 41.216-41.216h353.6896c22.784 0 41.216 18.432 41.216 41.216 0 22.7328-18.4832 41.216-41.216 41.216z m0-162.048H334.4896c-22.784 0-41.216-18.432-41.216-41.216 0-22.784 18.432-41.216 41.216-41.216h353.6896c22.784 0 41.216 18.432 41.216 41.216 0 22.784-18.4832 41.216-41.216 41.216z" fill="#999999" p-id="7317"></path><path d="M869.888 288.4608c0-56.576-45.824-102.4-102.4-102.4h-25.344v77.7216c0 25.6512-20.7872 46.4384-46.4384 46.4384H326.9632c-25.6512 0-46.4384-20.7872-46.4384-46.4384V186.0608h-25.344c-56.576 0-102.4 45.824-102.4 102.4v527.9232c0 56.576 45.824 102.4 102.4 102.4h200.9088c211.8144-66.048 373.504-245.6576 413.7984-467.6096V288.4608z m-181.7088 414.208H334.4896c-22.784 0-41.216-18.432-41.216-41.216 0-22.784 18.432-41.216 41.216-41.216h353.6896c22.784 0 41.216 18.432 41.216 41.216 0 22.7328-18.4832 41.216-41.216 41.216z m0-162.048H334.4896c-22.784 0-41.216-18.432-41.216-41.216 0-22.784 18.432-41.216 41.216-41.216h353.6896c22.784 0 41.216 18.432 41.216 41.216 0 22.784-18.4832 41.216-41.216 41.216z" fill="#999999" p-id="7318"></path><path d="M313.6 696.9344a41.10336 41.10336 0 0 1-20.2752-35.4816c0-22.784 18.432-41.216 41.216-41.216H460.8c32.9216-23.4496 63.3856-50.176 90.9824-79.616H334.4896c-22.784 0-41.216-18.432-41.216-41.216 0-22.784 18.432-41.216 41.216-41.216h281.9584c29.7472-45.4656 53.504-95.1296 70.1952-148.0192H326.9632c-25.6512 0-46.4384-20.7872-46.4384-46.4384V186.0608h-25.344c-56.576 0-102.4 45.824-102.4 102.4v441.8048c56.064-3.7888 110.0288-15.2576 160.8192-33.3312z" fill="#999999" p-id="7319"></path><path d="M415.2832 310.2208H326.9632c-25.6512 0-46.4384-20.7872-46.4384-46.4384V186.0608h-25.344c-56.576 0-102.4 45.824-102.4 102.4v198.0928c102.656-34.7136 192.9728-96.256 262.5024-176.3328z" fill="#999999" p-id="7320"></path><path d="M530.176 111.104H368.64c-16.9472 0-30.6688 13.7216-30.6688 30.6688v84.1728c0 16.9472 13.7216 30.6688 30.6688 30.6688h88.064c30.6688-44.4928 55.552-93.3888 73.472-145.5104z" fill="#999999" p-id="7321"></path></svg>