<?xml version="1.0" standalone="no"?><!DOCTYPE svg PUBLIC "-//W3C//DTD SVG 1.1//EN" "http://www.w3.org/Graphics/SVG/1.1/DTD/svg11.dtd"><svg t="1699365898187" class="icon" viewBox="0 0 1024 1024" version="1.1" xmlns="http://www.w3.org/2000/svg" p-id="6789" xmlns:xlink="http://www.w3.org/1999/xlink" width="200" height="200"><path d="M795.8016 273.9712h-86.8352v-1.792c0-105.3696-85.76-191.1296-191.1296-191.1296S326.7072 166.7584 326.7072 272.128v1.792H239.8208c-56.4736 0-102.1952 45.7728-102.1952 102.1952v470.784c0 56.4736 45.7728 102.1952 102.1952 102.1952h555.9808c56.4224 0 102.1952-45.7728 102.1952-102.1952V376.1664c0-56.4224-45.7216-102.1952-102.1952-102.1952z m-384.2048-1.8432c0-58.5728 47.6672-106.1888 106.1888-106.1888s106.1888 47.616 106.1888 106.1888v1.792H411.5968v-1.792z m324.608 434.432c-3.6352 4.864-90.112 119.3472-219.136 119.3472-129.3312 0-214.272-114.7904-217.856-119.7056-13.7728-18.944-9.5744-45.5168 9.3696-59.2896a42.4448 42.4448 0 0 1 59.2384 9.2672c1.1264 1.536 64 84.8384 149.248 84.8384 85.4528 0 150.3232-84.224 150.9888-85.0432a42.38336 42.38336 0 0 1 59.392-8.7552c18.7904 13.9264 22.7328 40.4992 8.7552 59.3408z" fill="#f27299" p-id="6790"></path><path d="M897.9968 376.1664c0-56.4736-45.7728-102.1952-102.1952-102.1952h-86.8352v-1.792c0-105.3696-85.76-191.1296-191.1296-191.1296S326.7072 166.7584 326.7072 272.1792v1.792H239.8208c-56.4736 0-102.1952 45.7728-102.1952 102.1952v470.784c0 56.4736 45.7728 102.1952 102.1952 102.1952h240.9984c209.9712-65.792 371.4048-241.3056 417.1264-459.4176V376.1664z m-486.4-104.0384c0-58.5728 47.6672-106.1888 106.1888-106.1888 58.5728 0 106.1888 47.616 106.1888 106.1888v1.792H411.5968v-1.792z m324.608 434.432c-3.6352 4.864-90.112 119.3472-219.136 119.3472-129.3312 0-214.272-114.7904-217.856-119.7056-13.7728-18.944-9.6256-45.5168 9.3696-59.2896a42.4448 42.4448 0 0 1 59.2384 9.2672c1.1264 1.536 64 84.8384 149.248 84.8384 85.4528 0 150.3232-84.224 150.9888-85.0432a42.38336 42.38336 0 0 1 59.392-8.7552c18.7904 13.9264 22.7328 40.4992 8.7552 59.3408z" fill="#f27299" p-id="6791"></path><path d="M708.9664 272.128c0-105.3696-85.76-191.1296-191.1296-191.1296S326.7072 166.7072 326.7072 272.128v1.792H239.8208c-56.4736 0-102.1952 45.7728-102.1952 102.1952v382.7712c63.0784-0.8704 123.8528-11.264 180.992-29.7472-11.7248-12.5952-18.4832-21.6576-19.4048-22.9888-13.7728-18.944-9.6256-45.5168 9.3696-59.2896a42.4448 42.4448 0 0 1 59.2384 9.2672c0.512 0.7168 14.0288 18.5856 36.7104 37.7344C568.32 611.4816 690.176 457.984 729.5488 273.92h-20.5824v-1.792z m-84.9408 1.8432H411.5968v-1.792c0-58.5728 47.6672-106.1888 106.1888-106.1888 58.5728 0 106.1888 47.616 106.1888 106.1888v1.792z" fill="#f27299" p-id="6792"></path><path d="M481.7408 273.9712h-70.144v-1.792c0-58.5728 47.6672-106.1888 106.1888-106.1888 7.5264 0 14.848 0.8192 21.9136 2.304a618.5472 618.5472 0 0 0 27.8528-80.5888c-15.872-4.3008-32.5632-6.6048-49.7664-6.6048-105.3696 0-191.1296 85.7088-191.1296 191.1296v1.792H239.8208c-56.4736 0-102.1952 45.7728-102.1952 102.1952v143.6672c141.824-39.0144 263.168-127.5904 344.1152-245.9136z" fill="#f27299" p-id="6793"></path></svg>